<svg aria-hidden="true" style="position:absolute;width:0;height:0;overflow:hidden" xmlns="http://www.w3.org/2000/svg"><defs><symbol id="icon-bulb-icon" viewBox="0 0 32 32"><path d="M26.432 28.226a8.199 8.199 0 0 0 4.363-2.871l.014-.018a8.177 8.177 0 0 0 1.677-6.132 8.196 8.196 0 0 0-3.17-5.486l-.02-.015c-1.716-1.301-3.846-1.87-5.999-1.6s-4.077 1.347-5.419 3.032a8.157 8.157 0 0 0-1.792 5.021c-.037 2.988-1.044 5.897-2.836 8.191l-1.961 2.509c-.338.43-.542.98-.542 1.577 0 .817.382 1.545.978 2.015l.005.004 1.878 1.467c.43.338.98.542 1.577.542.817 0 1.546-.382 2.015-.978l.004-.005 1.961-2.509c1.812-2.319 4.32-3.964 7.269-4.744zm-9.292-8.054a7.107 7.107 0 0 1 1.563-4.377c2.408-3.026 6.873-3.585 9.953-1.249a7.136 7.136 0 0 1 2.782 4.795 7.094 7.094 0 0 1-1.474 5.361l.011-.015a7.13 7.13 0 0 1-3.765 2.507l-.05.011c-3.107.823-5.771 2.533-7.715 4.953L14.2 28.841c1.857-2.45 2.9-5.52 2.939-8.67zm-4.8 11.054.263-.337 3.871 3.808-.103.132a1.494 1.494 0 0 1-.176.187l-.001.001-3.854-3.792zm.917-1.174.295-.378 4.251 3.322-.676.865-3.871-3.809zm-.878 3.57a1.506 1.506 0 0 1-.558-1.435l-.001.009 3.261 3.208a1.488 1.488 0 0 1-.827-.318l.003.002-1.878-1.467z"/><path d="M19.716 17.679c.138-.244.297-.479.474-.701a.527.527 0 1 0-.825-.659l-.001.001a6.448 6.448 0 0 0-.55.806l-.017.031a.527.527 0 1 0 .917.523l.001-.003zm-2.489 8.231a.528.528 0 0 0 .82-.234l.001-.004c.605-1.627.967-3.506.991-5.467v-.011c.004-.31.034-.619.091-.919a.527.527 0 0 0-1.037-.199l-.001.003a6.41 6.41 0 0 0-.109 1.101 15.685 15.685 0 0 1-.963 5.242l.035-.109a.526.526 0 0 0 .171.594l.001.001zm10.35-.804a.527.527 0 0 0-.719-.208l.003-.001c-.371.203-.77.362-1.185.472a.527.527 0 1 0 .274 1.02l-.004.001a6.293 6.293 0 0 0 1.454-.583l-.032.017a.527.527 0 0 0 .209-.716zm-.008-8.999a5.286 5.286 0 0 1 .587 7.786.527.527 0 1 0 .769.724c.129-.137.256-.284.375-.436l.011-.014a6.34 6.34 0 0 0-1.092-8.891.527.527 0 1 0-.651.831l.001.001zM29.949 13.06c.23.18.561.139.741-.09l1.82-2.33a.527.527 0 1 0-.831-.651l-.001.001-1.82 2.33a.524.524 0 0 0 .09.74l.001.001zm-4.85-2.466a.527.527 0 0 0 1.045.149v-.003l.411-2.926a.527.527 0 0 0-1.045-.149v.003l-.411 2.926zm4.419 21.344-1.107-2.74a.528.528 0 1 0-.977.399l-.001-.003 1.107 2.74a.528.528 0 1 0 .977-.399l.001.003zM19.006 8.742l1.107 2.74a.528.528 0 1 0 .977-.399l.001.004-1.107-2.74a.528.528 0 1 0-.977.399l-.001-.004zm15.606 19.014-2.33-1.82a.527.527 0 1 0-.651.831l.001.001 2.33 1.82a.527.527 0 0 0 .651-.832l-.001-.001zM16.983 14.652a.524.524 0 0 0-.09-.74l-.001-.001-2.33-1.82a.527.527 0 1 0-.651.831l.001.001 2.33 1.82c.23.18.561.139.741-.091zm16.626 7.463c.07.055.156.093.251.107l2.926.411a.527.527 0 0 0 .149-1.045h-.003l-2.926-.411a.528.528 0 0 0-.399.938l.001.001zm-18.945-3.657-2.926-.411a.527.527 0 0 0-.149 1.045h.003l2.926.411a.527.527 0 0 0 .149-1.045h-.003zm18.164-1.579a.528.528 0 0 0 .69.29l-.004.001 2.74-1.108a.528.528 0 1 0-.399-.977l.004-.001-2.74 1.107a.528.528 0 0 0-.29.69l-.001-.003z"/></symbol></defs></svg>