<svg aria-hidden="true" style="position:absolute;width:0;height:0;overflow:hidden" xmlns="http://www.w3.org/2000/svg"><defs><symbol id="icon-bulb-icon" viewBox="0 0 32 32"><path d="M26.432 28.226a8.199 8.199 0 0 0 4.363-2.871l.014-.018a8.177 8.177 0 0 0 1.677-6.132 8.196 8.196 0 0 0-3.17-5.486l-.02-.015c-1.716-1.301-3.846-1.87-5.999-1.6s-4.077 1.347-5.419 3.032a8.157 8.157 0 0 0-1.792 5.021c-.037 2.988-1.044 5.897-2.836 8.191l-1.961 2.509c-.338.43-.542.98-.542 1.577 0 .817.382 1.545.978 2.015l.005.004 1.878 1.467c.43.338.98.542 1.577.542.817 0 1.546-.382 2.015-.978l.004-.005 1.961-2.509c1.812-2.319 4.32-3.964 7.269-4.744zm-9.292-8.054a7.107 7.107 0 0 1 1.563-4.377c2.408-3.026 6.873-3.585 9.953-1.249a7.136 7.136 0 0 1 2.782 4.795 7.094 7.094 0 0 1-1.474 5.361l.011-.015a7.13 7.13 0 0 1-3.765 2.507l-.05.011c-3.107.823-5.771 2.533-7.715 4.953L14.2 28.841c1.857-2.45 2.9-5.52 2.939-8.67zm-4.8 11.054.263-.337 3.871 3.808-.103.132a1.494 1.494 0 0 1-.176.187l-.001.001-3.854-3.792zm.917-1.174.295-.378 4.251 3.322-.676.865-3.871-3.809zm-.878 3.57a1.506 1.506 0 0 1-.558-1.435l-.001.009 3.261 3.208a1.488 1.488 0 0 1-.827-.318l.003.002-1.878-1.467z"/><path d="M19.716 17.679c.138-.244.297-.479.474-.701a.527.527 0 1 0-.825-.659l-.001.001a6.448 6.448 0 0 0-.55.806l-.017.031a.527.527 0 1 0 .917.523l.001-.003zm-2.489 8.231a.528.528 0 0 0 .82-.234l.001-.004c.605-1.627.967-3.506.991-5.467v-.011c.004-.31.034-.619.091-.919a.527.527 0 0 0-1.037-.199l-.001.003a6.41 6.41 0 0 0-.109 1.101 15.685 15.685 0 0 1-.963 5.242l.035-.109a.526.526 0 0 0 .171.594l.001.001zm10.35-.804a.527.527 0 0 0-.719-.208l.003-.001c-.371.203-.77.362-1.185.472a.527.527 0 1 0 .274 1.02l-.004.001a6.293 6.293 0 0 0 1.454-.583l-.032.017a.527.527 0 0 0 .209-.716zm-.008-8.999a5.286 5.286 0 0 1 .587 7.786.527.527 0 1 0 .769.724c.129-.137.256-.284.375-.436l.011-.014a6.34 6.34 0 0 0-1.092-8.891.527.527 0 1 0-.651.831l.001.001zM29.949 13.06c.23.18.561.139.741-.09l1.82-2.33a.527.527 0 1 0-.831-.651l-.001.001-1.82 2.33a.524.524 0 0 0 .09.74l.001.001zm-4.85-2.466a.527.527 0 0 0 1.045.149v-.003l.411-2.926a.527.527 0 0 0-1.045-.149v.003l-.411 2.926zm4.419 21.344-1.107-2.74a.528.528 0 1 0-.977.399l-.001-.003 1.107 2.74a.528.528 0 1 0 .977-.399l.001.003zM19.006 8.742l1.107 2.74a.528.528 0 1 0 .977-.399l.001.004-1.107-2.74a.528.528 0 1 0-.977.399l-.001-.004zm15.606 19.014-2.33-1.82a.527.527 0 1 0-.651.831l.001.001 2.33 1.82a.527.527 0 0 0 .651-.832l-.001-.001zM16.983 14.652a.524.524 0 0 0-.09-.74l-.001-.001-2.33-1.82a.527.527 0 1 0-.651.831l.001.001 2.33 1.82c.23.18.561.139.741-.091zm16.626 7.463c.07.055.156.093.251.107l2.926.411a.527.527 0 0 0 .149-1.045h-.003l-2.926-.411a.528.528 0 0 0-.399.938l.001.001zm-18.945-3.657-2.926-.411a.527.527 0 0 0-.149 1.045h.003l2.926.411a.527.527 0 0 0 .149-1.045h-.003zm18.164-1.579a.528.528 0 0 0 .69.29l-.004.001 2.74-1.108a.528.528 0 1 0-.399-.977l.004-.001-2.74 1.107a.528.528 0 0 0-.29.69l-.001-.003z"/></symbol></defs>
<symbol id="icon-close" viewBox="0 0 32 32">
<path fill="#fff" style="fill: var(--color1, #fff)" d="M32 16c0 8.837-7.163 16-16 16s-16-7.163-16-16c0-8.837 7.163-16 16-16s16 7.163 16 16z"></path>
<path d="M22.4 10.782l-1.182-1.182-4.685 4.685-4.685-4.685-1.182 1.182 4.685 4.685-4.685 4.685 1.182 1.182 4.685-4.685 4.685 4.685 1.182-1.182-4.685-4.685 4.685-4.685z"></path>
</symbol>
<symbol id="icon-check" viewBox="0 0 32 32">
<path stroke-linejoin="miter" stroke-linecap="butt" stroke-miterlimit="4" stroke-width="0.4267" d="M6.308 16.537l-0.147-0.14-2.205 2.088 7.767 7.41 16.318-15.567-2.19-2.089-14.128 13.465-5.416-5.167z"></path>
</symbol>
<symbol id="icon-bulb" viewBox="0 0 32 32">
<path d="M18.723 19.994c1.266-0.339 2.33-1.062 3.090-2.034l0.010-0.013c0.969-1.24 1.391-2.782 1.188-4.343-0.209-1.6-1.043-2.972-2.246-3.886l-0.014-0.010c-1.215-0.922-2.724-1.325-4.249-1.133s-2.888 0.954-3.838 2.148c-0.814 1.023-1.253 2.253-1.27 3.557-0.026 2.117-0.74 4.177-2.009 5.802l-1.389 1.777c-0.239 0.305-0.384 0.694-0.384 1.117 0 0.579 0.271 1.095 0.693 1.427l0.004 0.003 1.33 1.039c0.305 0.239 0.694 0.384 1.117 0.384 0.579 0 1.095-0.271 1.427-0.693l0.003-0.004 1.389-1.777c1.283-1.643 3.060-2.808 5.149-3.361zM12.141 14.288c0.014-1.136 0.397-2.208 1.107-3.1 1.706-2.143 4.869-2.54 7.050-0.885 1.094 0.831 1.794 2.036 1.97 3.397 0.028 0.2 0.044 0.431 0.044 0.666 0 1.183-0.407 2.27-1.088 3.131l0.008-0.011c-0.671 0.858-1.599 1.488-2.667 1.776l-0.035 0.008c-2.201 0.583-4.087 1.794-5.465 3.508l-3.007-2.349c1.316-1.735 2.054-3.91 2.082-6.141zM8.741 22.119l0.186-0.238 2.742 2.698-0.073 0.093c-0.039 0.049-0.080 0.093-0.124 0.132l-0.001 0.001-2.73-2.686zM9.391 21.287l0.209-0.267 3.011 2.353-0.479 0.613-2.742-2.698zM8.769 23.816c-0.25-0.197-0.41-0.5-0.41-0.84 0-0.060 0.005-0.119 0.014-0.176l-0.001 0.006 2.31 2.273c-0.223-0.015-0.423-0.097-0.586-0.225l0.002 0.002-1.33-1.039z"></path>
<path d="M13.966 12.523c0.098-0.173 0.21-0.339 0.335-0.496 0.051-0.063 0.081-0.145 0.081-0.233 0-0.207-0.167-0.374-0.374-0.374-0.118 0-0.223 0.055-0.292 0.14l-0.001 0.001c-0.139 0.173-0.272 0.367-0.389 0.571l-0.012 0.022c-0.035 0.056-0.055 0.123-0.055 0.196 0 0.207 0.168 0.374 0.374 0.374 0.144 0 0.268-0.081 0.331-0.2l0.001-0.002zM12.203 18.353c0.063 0.049 0.143 0.079 0.23 0.079 0.161 0 0.298-0.102 0.351-0.245l0.001-0.003c0.429-1.152 0.685-2.484 0.702-3.872l0-0.008c0.003-0.219 0.024-0.438 0.065-0.651 0.004-0.021 0.006-0.045 0.006-0.069 0-0.207-0.167-0.374-0.374-0.374-0.182 0-0.334 0.13-0.367 0.302l-0 0.002c-0.048 0.255-0.074 0.517-0.077 0.78-0.016 1.308-0.256 2.556-0.682 3.713l0.025-0.077c-0.014 0.038-0.022 0.081-0.022 0.127 0 0.119 0.056 0.226 0.143 0.294l0.001 0.001zM19.534 17.784c-0.065-0.117-0.187-0.194-0.328-0.194-0.066 0-0.128 0.017-0.181 0.047l0.002-0.001c-0.263 0.144-0.545 0.256-0.839 0.334-0.161 0.044-0.278 0.189-0.278 0.361 0 0.206 0.167 0.374 0.374 0.374 0.034 0 0.067-0.005 0.098-0.013l-0.003 0.001c0.383-0.103 0.718-0.24 1.030-0.413l-0.023 0.012c0.181-0.099 0.247-0.326 0.148-0.507zM19.528 11.409c1.625 1.269 1.914 3.624 0.644 5.249-0.072 0.092-0.149 0.182-0.229 0.267-0.063 0.067-0.102 0.157-0.102 0.256 0 0.207 0.167 0.374 0.374 0.374 0.107 0 0.204-0.045 0.272-0.118l0-0c0.092-0.097 0.181-0.201 0.266-0.309l0.008-0.010c1.523-1.949 1.176-4.775-0.773-6.298-0.063-0.049-0.143-0.079-0.23-0.079-0.207 0-0.374 0.167-0.374 0.374 0 0.119 0.056 0.226 0.143 0.294l0.001 0.001zM21.214 9.251c0.163 0.127 0.398 0.099 0.525-0.064l1.289-1.65c0.049-0.063 0.079-0.143 0.079-0.23 0-0.207-0.167-0.374-0.374-0.374-0.119 0-0.226 0.056-0.294 0.143l-0.001 0.001-1.289 1.65c-0.049 0.063-0.079 0.143-0.079 0.23 0 0.119 0.056 0.226 0.143 0.294l0.001 0.001zM17.778 7.504c-0.002 0.016-0.004 0.034-0.004 0.052 0 0.207 0.167 0.374 0.374 0.374 0.188 0 0.344-0.139 0.37-0.32l0-0.002 0.291-2.073c0.002-0.016 0.004-0.034 0.004-0.052 0-0.207-0.167-0.374-0.374-0.374-0.188 0-0.344 0.139-0.37 0.32l-0 0.002-0.291 2.073zM20.908 22.622l-0.784-1.941c-0.057-0.138-0.191-0.234-0.347-0.234-0.206 0-0.374 0.167-0.374 0.374 0 0.050 0.010 0.099 0.028 0.142l-0.001-0.003 0.784 1.941c0.057 0.138 0.191 0.234 0.347 0.234 0.206 0 0.374-0.167 0.374-0.374 0-0.050-0.010-0.099-0.028-0.142l0.001 0.003zM13.463 6.192l0.784 1.941c0.057 0.138 0.191 0.234 0.347 0.234 0.206 0 0.374-0.167 0.374-0.374 0-0.050-0.010-0.099-0.028-0.143l0.001 0.003-0.784-1.941c-0.057-0.138-0.191-0.234-0.347-0.234-0.206 0-0.374 0.167-0.374 0.374 0 0.050 0.010 0.099 0.028 0.143l-0.001-0.003zM24.517 19.661l-1.65-1.289c-0.063-0.049-0.143-0.079-0.23-0.079-0.207 0-0.374 0.167-0.374 0.374 0 0.119 0.056 0.226 0.143 0.294l0.001 0.001 1.65 1.289c0.061 0.045 0.138 0.073 0.221 0.073 0.207 0 0.374-0.168 0.374-0.374 0-0.115-0.052-0.219-0.134-0.287l-0.001-0zM12.029 10.379c0.049-0.063 0.079-0.143 0.079-0.23 0-0.119-0.056-0.226-0.143-0.294l-0.001-0.001-1.65-1.289c-0.063-0.049-0.143-0.079-0.23-0.079-0.207 0-0.374 0.167-0.374 0.374 0 0.119 0.056 0.226 0.143 0.294l0.001 0.001 1.65 1.289c0.163 0.127 0.398 0.099 0.525-0.064zM23.807 15.665c0.050 0.039 0.11 0.066 0.178 0.075l2.073 0.291c0.016 0.002 0.034 0.004 0.052 0.004 0.206 0 0.374-0.167 0.374-0.374 0-0.188-0.139-0.344-0.32-0.37l-0.002-0-2.073-0.291c-0.016-0.002-0.034-0.004-0.052-0.004-0.206 0-0.374 0.167-0.374 0.374 0 0.119 0.056 0.226 0.143 0.294l0.001 0.001zM10.387 13.074l-2.073-0.291c-0.016-0.002-0.034-0.004-0.052-0.004-0.207 0-0.374 0.167-0.374 0.374 0 0.188 0.139 0.344 0.32 0.37l0.002 0 2.073 0.291c0.016 0.002 0.034 0.004 0.052 0.004 0.207 0 0.374-0.167 0.374-0.374 0-0.188-0.139-0.344-0.32-0.37l-0.002-0zM23.253 11.956c0.057 0.138 0.191 0.234 0.347 0.234 0.051 0 0.099-0.010 0.143-0.028l-0.002 0.001 1.941-0.785c0.138-0.057 0.234-0.191 0.234-0.347 0-0.206-0.167-0.374-0.374-0.374-0.050 0-0.099 0.010-0.142 0.028l0.003-0.001-1.941 0.784c-0.138 0.057-0.234 0.191-0.234 0.347 0 0.050 0.010 0.099 0.028 0.143l-0.001-0.002z"></path>
</symbol>
</svg>
